<mxfile host="app.diagrams.net" modified="2021-03-14T23:52:38.810Z" agent="5.0 (Windows NT 10.0; Win64; x64) AppleWebKit/537.36 (KHTML, like Gecko) Chrome/89.0.4389.82 Safari/537.36" etag="T_YvB7emoabx1yn1ejMb" version="14.4.8" type="github">
  <diagram id="6a731a19-8d31-9384-78a2-239565b7b9f0" name="Page-1">
    <mxGraphModel dx="1537" dy="689" grid="1" gridSize="10" guides="1" tooltips="1" connect="1" arrows="1" fold="1" page="1" pageScale="1" pageWidth="1169" pageHeight="827" background="#ffffff" math="0" shadow="0">
      <root>
        <mxCell id="0" />
        <mxCell id="1" parent="0" />
        <mxCell id="1351" value="Caractéristiques" style="ellipse;whiteSpace=wrap;html=1;shadow=0;fontFamily=Helvetica;fontSize=20;fontColor=#FFFFFF;align=center;strokeWidth=3;strokeColor=none;gradientColor=none;fillColor=#00FF00;" parent="1" vertex="1">
          <mxGeometry x="1050" y="240" width="173.5" height="121.5" as="geometry" />
        </mxCell>
        <mxCell id="1353" value="Profil" style="ellipse;whiteSpace=wrap;html=1;shadow=0;fontFamily=Helvetica;fontSize=20;fontColor=#FFFFFF;align=center;strokeWidth=3;strokeColor=none;fillColor=#00FF00;" parent="1" vertex="1">
          <mxGeometry x="1811" y="481.5" width="120" height="120" as="geometry" />
        </mxCell>
        <mxCell id="1354" value="Coûts" style="ellipse;whiteSpace=wrap;html=1;shadow=0;fontFamily=Helvetica;fontSize=20;fontColor=#FFFFFF;align=center;strokeWidth=3;strokeColor=none;fillColor=#00CC00;" parent="1" vertex="1">
          <mxGeometry x="1630" y="866.5" width="120" height="120" as="geometry" />
        </mxCell>
        <mxCell id="1355" value="Localisation a sein de l&#39;entreprise" style="ellipse;whiteSpace=wrap;html=1;shadow=0;fontFamily=Helvetica;fontSize=20;fontColor=#FFFFFF;align=center;strokeWidth=3;fillColor=#F08705;strokeColor=none;" parent="1" vertex="1">
          <mxGeometry x="1370" y="1286.5" width="179" height="149" as="geometry" />
        </mxCell>
        <mxCell id="1356" value="Pilotage" style="ellipse;whiteSpace=wrap;html=1;shadow=0;fontFamily=Helvetica;fontSize=20;fontColor=#FFFFFF;align=center;strokeWidth=3;fillColor=#E85642;strokeColor=none;" parent="1" vertex="1">
          <mxGeometry x="520" y="1150" width="158.5" height="141.5" as="geometry" />
        </mxCell>
        <mxCell id="1360" style="endArrow=none;strokeWidth=6;strokeColor=#f08705;html=1;" parent="1" source="1515" target="1351" edge="1">
          <mxGeometry relative="1" as="geometry" />
        </mxCell>
        <mxCell id="1362" value="z" style="endArrow=none;strokeWidth=6;strokeColor=#1699D3;html=1;" parent="1" source="1515" target="1353" edge="1">
          <mxGeometry relative="1" as="geometry" />
        </mxCell>
        <mxCell id="1363" style="endArrow=none;strokeWidth=6;strokeColor=#736CA8;html=1;entryX=1;entryY=0.5;entryDx=0;entryDy=0;" parent="1" source="1515" target="lDpgORzuOqznQ19GbmqC-1563" edge="1">
          <mxGeometry relative="1" as="geometry">
            <mxPoint x="432" y="781.5" as="targetPoint" />
          </mxGeometry>
        </mxCell>
        <mxCell id="lDpgORzuOqznQ19GbmqC-1645" value="organisé selon" style="edgeLabel;html=1;align=center;verticalAlign=middle;resizable=0;points=[];fontSize=20;" vertex="1" connectable="0" parent="1363">
          <mxGeometry x="0.2841" y="1" relative="1" as="geometry">
            <mxPoint as="offset" />
          </mxGeometry>
        </mxCell>
        <mxCell id="1364" value="induit des&amp;nbsp;" style="endArrow=none;strokeWidth=6;strokeColor=#736ca8;html=1;fontSize=20;" parent="1" source="1515" target="1354" edge="1">
          <mxGeometry relative="1" as="geometry" />
        </mxCell>
        <mxCell id="1365" value="" style="edgeStyle=none;endArrow=none;strokeWidth=6;strokeColor=#F08705;html=1;" parent="1" source="1515" target="1355" edge="1">
          <mxGeometry x="181" y="226.5" width="100" height="100" as="geometry">
            <mxPoint x="181" y="326.5" as="sourcePoint" />
            <mxPoint x="281" y="226.5" as="targetPoint" />
          </mxGeometry>
        </mxCell>
        <mxCell id="lDpgORzuOqznQ19GbmqC-1610" value="organisé selon" style="edgeLabel;html=1;align=center;verticalAlign=middle;resizable=0;points=[];fontSize=20;" vertex="1" connectable="0" parent="1365">
          <mxGeometry relative="1" as="geometry">
            <mxPoint x="-12" y="-29" as="offset" />
          </mxGeometry>
        </mxCell>
        <mxCell id="1366" value="" style="edgeStyle=none;endArrow=none;strokeWidth=6;strokeColor=#E85642;html=1;" parent="1" source="1515" target="1356" edge="1">
          <mxGeometry x="181" y="226.5" width="100" height="100" as="geometry">
            <mxPoint x="181" y="326.5" as="sourcePoint" />
            <mxPoint x="281" y="226.5" as="targetPoint" />
          </mxGeometry>
        </mxCell>
        <mxCell id="1435" value="Perch" style="rounded=1;fillColor=#64BBE2;strokeColor=none;strokeWidth=3;shadow=0;html=1;fontColor=#FFFFFF;" parent="1" vertex="1">
          <mxGeometry x="1656" y="441.5" width="120" height="40" as="geometry" />
        </mxCell>
        <mxCell id="1436" value="Mackerel" style="rounded=1;fillColor=#64BBE2;strokeColor=none;strokeWidth=3;shadow=0;html=1;fontColor=#FFFFFF;" parent="1" vertex="1">
          <mxGeometry x="1686" y="371.5" width="120" height="40" as="geometry" />
        </mxCell>
        <mxCell id="1437" value="Tuna" style="rounded=1;fillColor=#64BBE2;strokeColor=none;strokeWidth=3;shadow=0;html=1;fontColor=#FFFFFF;" parent="1" vertex="1">
          <mxGeometry x="1811" y="341.5" width="120" height="40" as="geometry" />
        </mxCell>
        <mxCell id="1438" value="Shark" style="rounded=1;fillColor=#64BBE2;strokeColor=none;strokeWidth=3;shadow=0;html=1;fontColor=#FFFFFF;" parent="1" vertex="1">
          <mxGeometry x="1931" y="291.5" width="120" height="40" as="geometry" />
        </mxCell>
        <mxCell id="1439" value="Whale" style="rounded=1;fillColor=#64BBE2;strokeColor=none;strokeWidth=3;shadow=0;html=1;fontColor=#FFFFFF;" parent="1" vertex="1">
          <mxGeometry x="1976" y="381.5" width="120" height="40" as="geometry" />
        </mxCell>
        <mxCell id="1440" value="Bass" style="rounded=1;fillColor=#64BBE2;strokeColor=none;strokeWidth=3;shadow=0;html=1;fontColor=#FFFFFF;" parent="1" vertex="1">
          <mxGeometry x="2046" y="461.5" width="120" height="40" as="geometry" />
        </mxCell>
        <mxCell id="1441" value="Eel" style="rounded=1;fillColor=#64BBE2;strokeColor=none;strokeWidth=3;shadow=0;html=1;fontColor=#FFFFFF;" parent="1" vertex="1">
          <mxGeometry x="1996" y="641.5" width="120" height="40" as="geometry" />
        </mxCell>
        <mxCell id="1442" value="Oyster" style="rounded=1;fillColor=#64BBE2;strokeColor=none;strokeWidth=3;shadow=0;html=1;fontColor=#FFFFFF;" parent="1" vertex="1">
          <mxGeometry x="2056" y="546.5" width="120" height="40" as="geometry" />
        </mxCell>
        <mxCell id="1443" value="Ray" style="rounded=1;fillColor=#64BBE2;strokeColor=none;strokeWidth=3;shadow=0;html=1;fontColor=#FFFFFF;" parent="1" vertex="1">
          <mxGeometry x="1856" y="691.5" width="120" height="40" as="geometry" />
        </mxCell>
        <mxCell id="1444" value="Trout" style="rounded=1;fillColor=#64BBE2;strokeColor=none;strokeWidth=3;shadow=0;html=1;fontColor=#FFFFFF;" parent="1" vertex="1">
          <mxGeometry x="1731" y="631.5" width="120" height="40" as="geometry" />
        </mxCell>
        <mxCell id="1445" value="Catfish" style="rounded=1;fillColor=#64BBE2;strokeColor=none;strokeWidth=3;shadow=0;html=1;fontColor=#FFFFFF;" parent="1" vertex="1">
          <mxGeometry x="1631" y="566.5" width="120" height="40" as="geometry" />
        </mxCell>
        <mxCell id="1446" value="" style="edgeStyle=none;endArrow=none;strokeWidth=3;strokeColor=#64BBE2;html=1;" parent="1" source="1353" target="1435" edge="1">
          <mxGeometry x="-149" y="-128.5" width="100" height="100" as="geometry">
            <mxPoint x="-149" y="-28.5" as="sourcePoint" />
            <mxPoint x="-49" y="-128.5" as="targetPoint" />
          </mxGeometry>
        </mxCell>
        <mxCell id="1447" value="" style="edgeStyle=none;endArrow=none;strokeWidth=3;strokeColor=#64BBE2;html=1;" parent="1" source="1353" target="1436" edge="1">
          <mxGeometry x="-149" y="-128.5" width="100" height="100" as="geometry">
            <mxPoint x="-149" y="-28.5" as="sourcePoint" />
            <mxPoint x="-49" y="-128.5" as="targetPoint" />
          </mxGeometry>
        </mxCell>
        <mxCell id="1448" value="" style="edgeStyle=none;endArrow=none;strokeWidth=3;strokeColor=#64BBE2;html=1;" parent="1" source="1353" target="1437" edge="1">
          <mxGeometry x="-149" y="-128.5" width="100" height="100" as="geometry">
            <mxPoint x="-149" y="-28.5" as="sourcePoint" />
            <mxPoint x="-49" y="-128.5" as="targetPoint" />
          </mxGeometry>
        </mxCell>
        <mxCell id="1449" value="" style="edgeStyle=none;endArrow=none;strokeWidth=3;strokeColor=#64BBE2;html=1;" parent="1" source="1353" target="1438" edge="1">
          <mxGeometry x="-149" y="-128.5" width="100" height="100" as="geometry">
            <mxPoint x="-149" y="-28.5" as="sourcePoint" />
            <mxPoint x="-49" y="-128.5" as="targetPoint" />
          </mxGeometry>
        </mxCell>
        <mxCell id="1450" value="" style="edgeStyle=none;endArrow=none;strokeWidth=3;strokeColor=#64BBE2;html=1;" parent="1" source="1353" target="1439" edge="1">
          <mxGeometry x="-149" y="-128.5" width="100" height="100" as="geometry">
            <mxPoint x="-149" y="-28.5" as="sourcePoint" />
            <mxPoint x="-49" y="-128.5" as="targetPoint" />
          </mxGeometry>
        </mxCell>
        <mxCell id="1451" value="" style="edgeStyle=none;endArrow=none;strokeWidth=3;strokeColor=#64BBE2;html=1;" parent="1" source="1353" target="1440" edge="1">
          <mxGeometry x="-149" y="-128.5" width="100" height="100" as="geometry">
            <mxPoint x="-149" y="-28.5" as="sourcePoint" />
            <mxPoint x="-49" y="-128.5" as="targetPoint" />
          </mxGeometry>
        </mxCell>
        <mxCell id="1452" value="" style="edgeStyle=none;endArrow=none;strokeWidth=3;strokeColor=#64BBE2;html=1;" parent="1" source="1353" target="1442" edge="1">
          <mxGeometry x="-149" y="-128.5" width="100" height="100" as="geometry">
            <mxPoint x="-149" y="-28.5" as="sourcePoint" />
            <mxPoint x="-49" y="-128.5" as="targetPoint" />
          </mxGeometry>
        </mxCell>
        <mxCell id="1453" value="" style="edgeStyle=none;endArrow=none;strokeWidth=3;strokeColor=#64BBE2;html=1;" parent="1" source="1353" target="1441" edge="1">
          <mxGeometry x="-149" y="-128.5" width="100" height="100" as="geometry">
            <mxPoint x="-149" y="-28.5" as="sourcePoint" />
            <mxPoint x="-49" y="-128.5" as="targetPoint" />
          </mxGeometry>
        </mxCell>
        <mxCell id="1454" value="" style="edgeStyle=none;endArrow=none;strokeWidth=3;strokeColor=#64BBE2;html=1;" parent="1" source="1353" target="1443" edge="1">
          <mxGeometry x="-149" y="-128.5" width="100" height="100" as="geometry">
            <mxPoint x="-149" y="-28.5" as="sourcePoint" />
            <mxPoint x="-49" y="-128.5" as="targetPoint" />
          </mxGeometry>
        </mxCell>
        <mxCell id="1455" value="" style="edgeStyle=none;endArrow=none;strokeWidth=3;strokeColor=#64BBE2;html=1;" parent="1" source="1353" target="1444" edge="1">
          <mxGeometry x="-149" y="-128.5" width="100" height="100" as="geometry">
            <mxPoint x="-149" y="-28.5" as="sourcePoint" />
            <mxPoint x="-49" y="-128.5" as="targetPoint" />
          </mxGeometry>
        </mxCell>
        <mxCell id="1456" value="" style="edgeStyle=none;endArrow=none;strokeWidth=3;strokeColor=#64BBE2;html=1;" parent="1" source="1353" target="1445" edge="1">
          <mxGeometry x="-149" y="-128.5" width="100" height="100" as="geometry">
            <mxPoint x="-149" y="-28.5" as="sourcePoint" />
            <mxPoint x="-49" y="-128.5" as="targetPoint" />
          </mxGeometry>
        </mxCell>
        <mxCell id="1457" value="Coûts&amp;nbsp; de conception" style="rounded=1;fillColor=#a29dc5;strokeColor=none;strokeWidth=3;shadow=0;html=1;fontColor=#FFFFFF;fontSize=20;" parent="1" vertex="1">
          <mxGeometry x="1796" y="750" width="250" height="38.5" as="geometry" />
        </mxCell>
        <mxCell id="1467" value="&lt;font style=&quot;font-size: 20px&quot;&gt;comprends des&lt;/font&gt;" style="edgeStyle=none;endArrow=none;strokeWidth=3;strokeColor=#A29DC5;html=1;entryX=0;entryY=1;entryDx=0;entryDy=0;" parent="1" target="1457" edge="1">
          <mxGeometry width="100" height="100" as="geometry">
            <mxPoint x="1726.0657011891326" y="880.1210997005967" as="sourcePoint" />
            <mxPoint x="1791.4482758620688" y="801.5" as="targetPoint" />
            <mxPoint x="-9" y="-1" as="offset" />
          </mxGeometry>
        </mxCell>
        <mxCell id="1515" value="Quels sont les concepts du projet 1 &quot;FoodImprove&quot;" style="ellipse;whiteSpace=wrap;html=1;shadow=0;fontFamily=Helvetica;fontSize=30;align=center;strokeWidth=6;fontStyle=1;fillColor=#FF0000;" parent="1" vertex="1">
          <mxGeometry x="1023.5" y="646.5" width="270" height="270" as="geometry" />
        </mxCell>
        <mxCell id="lDpgORzuOqznQ19GbmqC-1542" value="Localisation a sein de l&#39;entreprise" style="ellipse;whiteSpace=wrap;html=1;shadow=0;fontFamily=Helvetica;fontSize=20;fontColor=#FFFFFF;align=center;strokeWidth=3;fillColor=#F08705;strokeColor=none;" vertex="1" parent="1">
          <mxGeometry x="1373.5" y="1286.5" width="179" height="149" as="geometry" />
        </mxCell>
        <mxCell id="lDpgORzuOqznQ19GbmqC-1543" value="Pilotage" style="ellipse;whiteSpace=wrap;html=1;shadow=0;fontFamily=Helvetica;fontSize=20;fontColor=#FFFFFF;align=center;strokeWidth=3;fillColor=#E85642;strokeColor=none;" vertex="1" parent="1">
          <mxGeometry x="523.5" y="1150" width="158.5" height="141.5" as="geometry" />
        </mxCell>
        <mxCell id="lDpgORzuOqznQ19GbmqC-1544" value="Localisation a sein de l&#39;entreprise" style="ellipse;whiteSpace=wrap;html=1;shadow=0;fontFamily=Helvetica;fontSize=20;fontColor=#FFFFFF;align=center;strokeWidth=3;fillColor=#F08705;strokeColor=none;" vertex="1" parent="1">
          <mxGeometry x="1373.5" y="1286.5" width="179" height="149" as="geometry" />
        </mxCell>
        <mxCell id="lDpgORzuOqznQ19GbmqC-1545" value="Pilotage" style="ellipse;whiteSpace=wrap;html=1;shadow=0;fontFamily=Helvetica;fontSize=20;fontColor=#FFFFFF;align=center;strokeWidth=3;fillColor=#E85642;strokeColor=none;" vertex="1" parent="1">
          <mxGeometry x="523.5" y="1150" width="158.5" height="141.5" as="geometry" />
        </mxCell>
        <mxCell id="lDpgORzuOqznQ19GbmqC-1547" value="Localisation a sein de l&#39;entreprise" style="ellipse;whiteSpace=wrap;html=1;shadow=0;fontFamily=Helvetica;fontSize=20;fontColor=#FFFFFF;align=center;strokeWidth=3;strokeColor=none;fillColor=#00CC00;" vertex="1" parent="1">
          <mxGeometry x="1373.5" y="1284.5" width="179" height="149" as="geometry" />
        </mxCell>
        <mxCell id="lDpgORzuOqznQ19GbmqC-1548" value="Pilotage" style="ellipse;whiteSpace=wrap;html=1;shadow=0;fontFamily=Helvetica;fontSize=20;fontColor=#FFFFFF;align=center;strokeWidth=3;strokeColor=none;fillColor=#00CC00;" vertex="1" parent="1">
          <mxGeometry x="523.5" y="1148" width="158.5" height="141.5" as="geometry" />
        </mxCell>
        <mxCell id="lDpgORzuOqznQ19GbmqC-1550" value="Localisation a sein de l&#39;entreprise" style="ellipse;whiteSpace=wrap;html=1;shadow=0;fontFamily=Helvetica;fontSize=20;fontColor=#FFFFFF;align=center;strokeWidth=3;strokeColor=none;fillColor=#00CC00;" vertex="1" parent="1">
          <mxGeometry x="1373.5" y="1284.5" width="179" height="149" as="geometry" />
        </mxCell>
        <mxCell id="lDpgORzuOqznQ19GbmqC-1551" value="Pilotage" style="ellipse;whiteSpace=wrap;html=1;shadow=0;fontFamily=Helvetica;fontSize=20;fontColor=#FFFFFF;align=center;strokeWidth=3;strokeColor=none;fillColor=#00CC00;" vertex="1" parent="1">
          <mxGeometry x="523.5" y="1148" width="158.5" height="141.5" as="geometry" />
        </mxCell>
        <mxCell id="lDpgORzuOqznQ19GbmqC-1553" value="Localisation a sein de l&#39;entreprise" style="ellipse;whiteSpace=wrap;html=1;shadow=0;fontFamily=Helvetica;fontSize=20;fontColor=#FFFFFF;align=center;strokeWidth=3;strokeColor=none;fillColor=#00CC00;" vertex="1" parent="1">
          <mxGeometry x="1373.5" y="1281.5" width="179" height="149" as="geometry" />
        </mxCell>
        <mxCell id="lDpgORzuOqznQ19GbmqC-1554" value="Pilotage" style="ellipse;whiteSpace=wrap;html=1;shadow=0;fontFamily=Helvetica;fontSize=20;fontColor=#FFFFFF;align=center;strokeWidth=3;strokeColor=none;fillColor=#00CC00;" vertex="1" parent="1">
          <mxGeometry x="523.5" y="1145" width="158.5" height="141.5" as="geometry" />
        </mxCell>
        <mxCell id="lDpgORzuOqznQ19GbmqC-1557" value="Localisation a sein de l&#39;entreprise" style="ellipse;whiteSpace=wrap;html=1;shadow=0;fontFamily=Helvetica;fontSize=20;fontColor=#FFFFFF;align=center;strokeWidth=3;strokeColor=none;fillColor=#00CC00;" vertex="1" parent="1">
          <mxGeometry x="1373.5" y="1284.5" width="179" height="149" as="geometry" />
        </mxCell>
        <mxCell id="lDpgORzuOqznQ19GbmqC-1558" value="Pilotage" style="ellipse;whiteSpace=wrap;html=1;shadow=0;fontFamily=Helvetica;fontSize=20;fontColor=#FFFFFF;align=center;strokeWidth=3;strokeColor=none;fillColor=#00CC00;" vertex="1" parent="1">
          <mxGeometry x="523.5" y="1148" width="158.5" height="141.5" as="geometry" />
        </mxCell>
        <mxCell id="lDpgORzuOqznQ19GbmqC-1561" value="Localisation a sein de l&#39;entreprise" style="ellipse;whiteSpace=wrap;html=1;shadow=0;fontFamily=Helvetica;fontSize=20;fontColor=#FFFFFF;align=center;strokeWidth=3;strokeColor=none;fillColor=#00FF00;" vertex="1" parent="1">
          <mxGeometry x="1370" y="1281.5" width="182.5" height="158.5" as="geometry" />
        </mxCell>
        <mxCell id="lDpgORzuOqznQ19GbmqC-1562" value="Pilotage" style="ellipse;whiteSpace=wrap;html=1;shadow=0;fontFamily=Helvetica;fontSize=20;fontColor=#FFFFFF;align=center;strokeWidth=3;strokeColor=none;fillColor=#00FF00;" vertex="1" parent="1">
          <mxGeometry x="520" y="1148" width="162" height="142" as="geometry" />
        </mxCell>
        <mxCell id="lDpgORzuOqznQ19GbmqC-1563" value="Structure" style="ellipse;whiteSpace=wrap;html=1;shadow=0;fontFamily=Helvetica;fontSize=20;fontColor=#FFFFFF;align=center;strokeWidth=3;strokeColor=none;fillColor=#00FF00;" vertex="1" parent="1">
          <mxGeometry x="585" y="721.5" width="120" height="120" as="geometry" />
        </mxCell>
        <mxCell id="lDpgORzuOqznQ19GbmqC-1564" value="Définiton" style="ellipse;whiteSpace=wrap;html=1;shadow=0;fontFamily=Helvetica;fontSize=20;fontColor=#FFFFFF;align=center;strokeWidth=3;strokeColor=none;fillColor=#00FF00;" vertex="1" parent="1">
          <mxGeometry x="720" y="455.15" width="120" height="120" as="geometry" />
        </mxCell>
        <mxCell id="lDpgORzuOqznQ19GbmqC-1565" value="Coûts" style="ellipse;whiteSpace=wrap;html=1;shadow=0;fontFamily=Helvetica;fontSize=20;fontColor=#FFFFFF;align=center;strokeWidth=3;strokeColor=none;fillColor=#00FF00;" vertex="1" parent="1">
          <mxGeometry x="1630" y="866.5" width="120" height="120" as="geometry" />
        </mxCell>
        <mxCell id="lDpgORzuOqznQ19GbmqC-1571" value="Coûts&amp;nbsp; de production" style="rounded=1;fillColor=#a29dc5;strokeColor=none;strokeWidth=3;shadow=0;html=1;fontColor=#FFFFFF;fontSize=20;" vertex="1" parent="1">
          <mxGeometry x="2020" y="841.5" width="200" height="40" as="geometry" />
        </mxCell>
        <mxCell id="lDpgORzuOqznQ19GbmqC-1572" value="&lt;font style=&quot;font-size: 20px&quot;&gt;comprends des&lt;/font&gt;" style="edgeStyle=none;endArrow=none;strokeWidth=3;strokeColor=#A29DC5;html=1;" edge="1" parent="1" target="lDpgORzuOqznQ19GbmqC-1571">
          <mxGeometry width="100" height="100" as="geometry">
            <mxPoint x="1750" y="920" as="sourcePoint" />
            <mxPoint x="126.97" y="-447.12" as="targetPoint" />
            <mxPoint x="-3" y="-8" as="offset" />
          </mxGeometry>
        </mxCell>
        <mxCell id="lDpgORzuOqznQ19GbmqC-1586" value="Coûts&amp;nbsp; d&#39;utilisation et de mainteance&lt;br style=&quot;font-size: 20px;&quot;&gt;" style="rounded=1;fillColor=#a29dc5;strokeColor=none;strokeWidth=3;shadow=0;html=1;fontColor=#FFFFFF;whiteSpace=wrap;fontSize=20;" vertex="1" parent="1">
          <mxGeometry x="1948.68" y="980" width="227.32" height="80" as="geometry" />
        </mxCell>
        <mxCell id="lDpgORzuOqznQ19GbmqC-1587" value="&lt;font style=&quot;font-size: 20px&quot;&gt;comprends des&lt;/font&gt;" style="edgeStyle=none;endArrow=none;strokeWidth=3;strokeColor=#A29DC5;html=1;exitX=0.945;exitY=0.75;exitDx=0;exitDy=0;exitPerimeter=0;entryX=0;entryY=0.5;entryDx=0;entryDy=0;" edge="1" parent="1" source="lDpgORzuOqznQ19GbmqC-1565" target="lDpgORzuOqznQ19GbmqC-1586">
          <mxGeometry x="122.67999999999999" y="198.5" width="100" height="100" as="geometry">
            <mxPoint x="1749.31" y="982.42" as="sourcePoint" />
            <mxPoint x="1914.1282758620684" y="1000" as="targetPoint" />
            <mxPoint x="-9" y="-1" as="offset" />
          </mxGeometry>
        </mxCell>
        <mxCell id="lDpgORzuOqznQ19GbmqC-1588" value="Coûts&amp;nbsp; d&#39;extinction" style="rounded=1;fillColor=#a29dc5;strokeColor=none;strokeWidth=3;shadow=0;html=1;fontColor=#FFFFFF;fontSize=20;" vertex="1" parent="1">
          <mxGeometry x="1784.96" y="1090" width="180.07" height="43.5" as="geometry" />
        </mxCell>
        <mxCell id="lDpgORzuOqznQ19GbmqC-1589" value="&lt;font style=&quot;font-size: 20px&quot;&gt;comprends des&lt;/font&gt;" style="edgeStyle=none;endArrow=none;strokeWidth=3;strokeColor=#A29DC5;html=1;exitX=0.739;exitY=0.956;exitDx=0;exitDy=0;exitPerimeter=0;entryX=0;entryY=0;entryDx=0;entryDy=0;" edge="1" parent="1" source="lDpgORzuOqznQ19GbmqC-1565" target="lDpgORzuOqznQ19GbmqC-1588">
          <mxGeometry x="49.93" y="285" width="100" height="100" as="geometry">
            <mxPoint x="1775.9957011891327" y="1165.1210997005967" as="sourcePoint" />
            <mxPoint x="1841.3782758620684" y="1086.5" as="targetPoint" />
            <mxPoint x="-9" y="-1" as="offset" />
          </mxGeometry>
        </mxCell>
        <mxCell id="lDpgORzuOqznQ19GbmqC-1608" value="équipe dédiée" style="rounded=1;fillColor=#a29dc5;strokeColor=none;strokeWidth=3;shadow=0;html=1;fontColor=#FFFFFF;fontSize=20;" vertex="1" parent="1">
          <mxGeometry x="1760" y="1480" width="160" height="50" as="geometry" />
        </mxCell>
        <mxCell id="lDpgORzuOqznQ19GbmqC-1609" value="&lt;font style=&quot;font-size: 20px&quot;&gt;organisé selon&lt;/font&gt;" style="edgeStyle=none;endArrow=none;strokeWidth=3;strokeColor=#A29DC5;html=1;entryX=0;entryY=0;entryDx=0;entryDy=0;" edge="1" parent="1" target="lDpgORzuOqznQ19GbmqC-1608">
          <mxGeometry x="-146.07" y="652.5" width="100" height="100" as="geometry">
            <mxPoint x="1542" y="1398" as="sourcePoint" />
            <mxPoint x="1600" y="1420" as="targetPoint" />
            <mxPoint x="-9" y="-1" as="offset" />
          </mxGeometry>
        </mxCell>
        <mxCell id="lDpgORzuOqznQ19GbmqC-1613" value="équipe dédiée" style="rounded=1;fillColor=#a29dc5;strokeColor=none;strokeWidth=3;shadow=0;html=1;fontColor=#FFFFFF;fontSize=20;" vertex="1" parent="1">
          <mxGeometry x="760" y="1380" width="170" height="40" as="geometry" />
        </mxCell>
        <mxCell id="lDpgORzuOqznQ19GbmqC-1614" value="&lt;font style=&quot;font-size: 20px&quot;&gt;piloté par&lt;/font&gt;" style="edgeStyle=none;endArrow=none;strokeWidth=3;strokeColor=#A29DC5;html=1;entryX=0;entryY=0;entryDx=0;entryDy=0;" edge="1" parent="1" target="lDpgORzuOqznQ19GbmqC-1613">
          <mxGeometry x="-1028.57" y="524.5" width="100" height="100" as="geometry">
            <mxPoint x="659.4999999999995" y="1270" as="sourcePoint" />
            <mxPoint x="717.5" y="1292" as="targetPoint" />
            <mxPoint x="-9" y="-1" as="offset" />
          </mxGeometry>
        </mxCell>
        <mxCell id="lDpgORzuOqznQ19GbmqC-1646" value="Structure financière" style="rounded=1;fillColor=#a29dc5;strokeColor=none;strokeWidth=3;shadow=0;html=1;fontColor=#FFFFFF;fontSize=20;" vertex="1" parent="1">
          <mxGeometry x="290" y="881.5" width="221.5" height="40" as="geometry" />
        </mxCell>
        <mxCell id="lDpgORzuOqznQ19GbmqC-1647" value="&lt;font style=&quot;font-size: 20px&quot;&gt;organisé selon&lt;/font&gt;" style="edgeStyle=none;endArrow=none;strokeWidth=3;strokeColor=#A29DC5;html=1;entryX=1;entryY=0.25;entryDx=0;entryDy=0;exitX=0;exitY=1;exitDx=0;exitDy=0;" edge="1" parent="1" target="lDpgORzuOqznQ19GbmqC-1646" source="lDpgORzuOqznQ19GbmqC-1563">
          <mxGeometry x="-1182.57" y="102.5" width="100" height="100" as="geometry">
            <mxPoint x="505.49999999999955" y="848" as="sourcePoint" />
            <mxPoint x="563.5" y="870" as="targetPoint" />
            <mxPoint x="-9" y="-1" as="offset" />
          </mxGeometry>
        </mxCell>
        <mxCell id="lDpgORzuOqznQ19GbmqC-1648" value="25% UGC&lt;br&gt;75% Extalium" style="rounded=1;strokeWidth=3;shadow=0;html=1;fontSize=20;" vertex="1" parent="1">
          <mxGeometry x="80" y="980" width="140" height="50" as="geometry" />
        </mxCell>
        <mxCell id="lDpgORzuOqznQ19GbmqC-1649" value="&lt;font style=&quot;font-size: 20px&quot;&gt;organisé selon&lt;/font&gt;" style="edgeStyle=none;endArrow=none;strokeWidth=3;strokeColor=#A29DC5;html=1;entryX=1;entryY=0;entryDx=0;entryDy=0;exitX=0;exitY=0.5;exitDx=0;exitDy=0;" edge="1" parent="1" target="lDpgORzuOqznQ19GbmqC-1648" source="lDpgORzuOqznQ19GbmqC-1646">
          <mxGeometry x="-1408.57" y="224.5" width="100" height="100" as="geometry">
            <mxPoint x="279.49999999999955" y="970" as="sourcePoint" />
            <mxPoint x="337.5" y="992" as="targetPoint" />
            <mxPoint x="-9" y="-1" as="offset" />
          </mxGeometry>
        </mxCell>
        <mxCell id="lDpgORzuOqznQ19GbmqC-1651" value="Acteurs" style="rounded=1;fillColor=#a29dc5;strokeColor=none;strokeWidth=3;shadow=0;html=1;fontColor=#FFFFFF;fontSize=20;" vertex="1" parent="1">
          <mxGeometry x="430" y="490" width="131.5" height="30.29" as="geometry" />
        </mxCell>
        <mxCell id="lDpgORzuOqznQ19GbmqC-1652" value="&lt;font style=&quot;font-size: 20px&quot;&gt;tenu par&lt;/font&gt;" style="edgeStyle=none;endArrow=none;strokeWidth=3;strokeColor=#A29DC5;html=1;entryX=1;entryY=0.5;entryDx=0;entryDy=0;exitX=0;exitY=0.5;exitDx=0;exitDy=0;" edge="1" parent="1" target="lDpgORzuOqznQ19GbmqC-1651" source="lDpgORzuOqznQ19GbmqC-1564">
          <mxGeometry x="-1212.57" y="-288.71" width="100" height="100" as="geometry">
            <mxPoint x="572.5735931288068" y="432.71640687119344" as="sourcePoint" />
            <mxPoint x="533.5" y="478.79" as="targetPoint" />
            <mxPoint x="-9" y="-1" as="offset" />
          </mxGeometry>
        </mxCell>
        <mxCell id="lDpgORzuOqznQ19GbmqC-1653" value="&lt;font style=&quot;font-size: 20px&quot;&gt;organisé selon&lt;/font&gt;" style="edgeStyle=none;endArrow=none;strokeWidth=3;strokeColor=#A29DC5;html=1;entryX=1;entryY=0;entryDx=0;entryDy=0;exitX=0;exitY=0.5;exitDx=0;exitDy=0;" edge="1" parent="1">
          <mxGeometry x="-1408.57" y="224.5" width="100" height="100" as="geometry">
            <mxPoint x="290" y="901.5" as="sourcePoint" />
            <mxPoint x="220" y="980" as="targetPoint" />
            <mxPoint x="-9" y="-1" as="offset" />
          </mxGeometry>
        </mxCell>
        <mxCell id="lDpgORzuOqznQ19GbmqC-1655" value="MOA" style="rounded=1;strokeWidth=3;shadow=0;html=1;fontSize=20;" vertex="1" parent="1">
          <mxGeometry x="320" y="586.5" width="110" height="31.21" as="geometry" />
        </mxCell>
        <mxCell id="lDpgORzuOqznQ19GbmqC-1656" value="&lt;font style=&quot;font-size: 20px&quot;&gt;composé de&lt;/font&gt;" style="edgeStyle=none;endArrow=none;strokeWidth=3;strokeColor=#A29DC5;html=1;entryX=1;entryY=0;entryDx=0;entryDy=0;exitX=0;exitY=1;exitDx=0;exitDy=0;" edge="1" parent="1" source="lDpgORzuOqznQ19GbmqC-1651" target="lDpgORzuOqznQ19GbmqC-1655">
          <mxGeometry x="-1338.57" y="-146.70999999999998" width="100" height="100" as="geometry">
            <mxPoint x="360" y="530.29" as="sourcePoint" />
            <mxPoint x="290" y="608.79" as="targetPoint" />
            <mxPoint x="-9" y="-1" as="offset" />
          </mxGeometry>
        </mxCell>
        <mxCell id="lDpgORzuOqznQ19GbmqC-1657" value="MOE" style="rounded=1;strokeWidth=3;shadow=0;html=1;fontSize=20;" vertex="1" parent="1">
          <mxGeometry x="160" y="490" width="110" height="31.21" as="geometry" />
        </mxCell>
        <mxCell id="lDpgORzuOqznQ19GbmqC-1658" value="&lt;font style=&quot;font-size: 20px&quot;&gt;composé de&lt;/font&gt;" style="edgeStyle=none;endArrow=none;strokeWidth=3;strokeColor=#A29DC5;html=1;entryX=1;entryY=0;entryDx=0;entryDy=0;exitX=0;exitY=0.5;exitDx=0;exitDy=0;" edge="1" parent="1" target="lDpgORzuOqznQ19GbmqC-1657" source="lDpgORzuOqznQ19GbmqC-1651">
          <mxGeometry x="-1388.57" y="-235.5" width="100" height="100" as="geometry">
            <mxPoint x="310" y="441.49999999999994" as="sourcePoint" />
            <mxPoint x="240" y="520" as="targetPoint" />
            <mxPoint x="-9" y="-1" as="offset" />
          </mxGeometry>
        </mxCell>
        <mxCell id="lDpgORzuOqznQ19GbmqC-1659" style="endArrow=none;strokeWidth=6;strokeColor=#736CA8;html=1;entryX=0.918;entryY=0.775;entryDx=0;entryDy=0;entryPerimeter=0;" edge="1" parent="1" target="lDpgORzuOqznQ19GbmqC-1564">
          <mxGeometry relative="1" as="geometry">
            <mxPoint x="1068.4999999999955" y="681.5" as="sourcePoint" />
            <mxPoint x="750" y="681.5" as="targetPoint" />
          </mxGeometry>
        </mxCell>
        <mxCell id="lDpgORzuOqznQ19GbmqC-1661" value="UGC" style="rounded=1;strokeWidth=3;shadow=0;html=1;fontSize=20;strokeColor=#6666FF;fillColor=#6666FF;" vertex="1" parent="1">
          <mxGeometry x="158.57" y="690.29" width="110" height="31.21" as="geometry" />
        </mxCell>
        <mxCell id="lDpgORzuOqznQ19GbmqC-1662" value="&lt;font style=&quot;font-size: 20px&quot;&gt;représenté par&lt;/font&gt;" style="edgeStyle=none;endArrow=none;strokeWidth=3;strokeColor=#A29DC5;html=1;entryX=1;entryY=0;entryDx=0;entryDy=0;exitX=0.157;exitY=1.06;exitDx=0;exitDy=0;exitPerimeter=0;" edge="1" parent="1" target="lDpgORzuOqznQ19GbmqC-1661" source="lDpgORzuOqznQ19GbmqC-1655">
          <mxGeometry x="-1500" y="-42.91999999999997" width="100" height="100" as="geometry">
            <mxPoint x="268.57" y="624.0799999999999" as="sourcePoint" />
            <mxPoint x="128.57" y="712.5799999999999" as="targetPoint" />
            <mxPoint x="-9" y="-1" as="offset" />
          </mxGeometry>
        </mxCell>
        <mxCell id="lDpgORzuOqznQ19GbmqC-1663" value="Fixtalium" style="rounded=1;strokeWidth=3;shadow=0;html=1;fontSize=20;strokeColor=#6666FF;fillColor=#6666FF;" vertex="1" parent="1">
          <mxGeometry x="9.999999999999993" y="575.29" width="110" height="31.21" as="geometry" />
        </mxCell>
        <mxCell id="lDpgORzuOqznQ19GbmqC-1664" value="&lt;font style=&quot;font-size: 20px&quot;&gt;représenté par&lt;/font&gt;" style="edgeStyle=none;endArrow=none;strokeWidth=3;strokeColor=#A29DC5;html=1;entryX=1;entryY=0;entryDx=0;entryDy=0;exitX=0.157;exitY=1.06;exitDx=0;exitDy=0;exitPerimeter=0;" edge="1" parent="1" target="lDpgORzuOqznQ19GbmqC-1663">
          <mxGeometry x="-1597.92" y="-142.20999999999998" width="100" height="100" as="geometry">
            <mxPoint x="239.34999999999974" y="520.2926" as="sourcePoint" />
            <mxPoint x="30.64999999999999" y="613.29" as="targetPoint" />
            <mxPoint x="-9" y="-1" as="offset" />
          </mxGeometry>
        </mxCell>
        <mxCell id="lDpgORzuOqznQ19GbmqC-1665" value="Domaines" style="rounded=1;fillColor=#a29dc5;strokeColor=none;strokeWidth=3;shadow=0;html=1;fontColor=#FFFFFF;fontSize=20;" vertex="1" parent="1">
          <mxGeometry x="535.25" y="383" width="131.5" height="30.29" as="geometry" />
        </mxCell>
        <mxCell id="lDpgORzuOqznQ19GbmqC-1666" value="&lt;font style=&quot;font-size: 20px&quot;&gt;tenu par&lt;/font&gt;" style="edgeStyle=none;endArrow=none;strokeWidth=3;strokeColor=#A29DC5;html=1;entryX=1;entryY=0.5;entryDx=0;entryDy=0;exitX=0.061;exitY=0.192;exitDx=0;exitDy=0;exitPerimeter=0;" edge="1" parent="1" target="lDpgORzuOqznQ19GbmqC-1665" source="lDpgORzuOqznQ19GbmqC-1564">
          <mxGeometry x="-1212.57" y="-372.36" width="100" height="100" as="geometry">
            <mxPoint x="720.000000000005" y="431.5000000000001" as="sourcePoint" />
            <mxPoint x="533.5" y="395.14" as="targetPoint" />
            <mxPoint x="-9" y="-1" as="offset" />
          </mxGeometry>
        </mxCell>
        <mxCell id="lDpgORzuOqznQ19GbmqC-1667" value="Alimentation" style="rounded=1;strokeWidth=3;shadow=0;html=1;fontSize=20;" vertex="1" parent="1">
          <mxGeometry x="320" y="186.04" width="120" height="41.21" as="geometry" />
        </mxCell>
        <mxCell id="lDpgORzuOqznQ19GbmqC-1668" value="&lt;span style=&quot;font-size: 20px&quot;&gt;s&#39;inscrit dans&lt;/span&gt;" style="edgeStyle=none;endArrow=none;strokeWidth=3;strokeColor=#A29DC5;html=1;entryX=1;entryY=0.75;entryDx=0;entryDy=0;exitX=0.5;exitY=0;exitDx=0;exitDy=0;" edge="1" parent="1" target="lDpgORzuOqznQ19GbmqC-1667" source="lDpgORzuOqznQ19GbmqC-1665">
          <mxGeometry x="-1358.57" y="-425.21" width="100" height="100" as="geometry">
            <mxPoint x="460" y="315.435" as="sourcePoint" />
            <mxPoint x="270" y="330.29" as="targetPoint" />
            <mxPoint x="-9" y="-1" as="offset" />
          </mxGeometry>
        </mxCell>
        <mxCell id="lDpgORzuOqznQ19GbmqC-1669" value="Innovation" style="rounded=1;strokeWidth=3;shadow=0;html=1;fontSize=20;" vertex="1" parent="1">
          <mxGeometry x="170" y="331.50000000000006" width="110" height="31.21" as="geometry" />
        </mxCell>
        <mxCell id="lDpgORzuOqznQ19GbmqC-1670" value="&lt;font style=&quot;font-size: 20px&quot;&gt;s&#39;inscrit dans&lt;/font&gt;" style="edgeStyle=none;endArrow=none;strokeWidth=3;strokeColor=#A29DC5;html=1;entryX=1;entryY=0.25;entryDx=0;entryDy=0;exitX=0;exitY=0.75;exitDx=0;exitDy=0;" edge="1" parent="1" target="lDpgORzuOqznQ19GbmqC-1669" source="lDpgORzuOqznQ19GbmqC-1665">
          <mxGeometry x="-1390" y="-335.21" width="100" height="100" as="geometry">
            <mxPoint x="428.57" y="405.435" as="sourcePoint" />
            <mxPoint x="238.57" y="420.29" as="targetPoint" />
            <mxPoint x="-9" y="-1" as="offset" />
          </mxGeometry>
        </mxCell>
        <mxCell id="lDpgORzuOqznQ19GbmqC-1673" value="Opinion publique" style="rounded=1;fillColor=#a29dc5;strokeColor=none;strokeWidth=3;shadow=0;html=1;fontColor=#FFFFFF;fontSize=20;" vertex="1" parent="1">
          <mxGeometry x="830" y="130" width="160" height="40" as="geometry" />
        </mxCell>
        <mxCell id="lDpgORzuOqznQ19GbmqC-1676" value="Projet né" style="rounded=1;strokeWidth=3;shadow=0;html=1;fontSize=20;" vertex="1" parent="1">
          <mxGeometry x="500" y="60.00000000000006" width="110" height="31.21" as="geometry" />
        </mxCell>
        <mxCell id="lDpgORzuOqznQ19GbmqC-1677" value="&lt;font style=&quot;font-size: 20px&quot;&gt;favorisé par&lt;/font&gt;" style="edgeStyle=none;endArrow=none;strokeWidth=3;strokeColor=#A29DC5;html=1;entryX=1;entryY=0.25;entryDx=0;entryDy=0;exitX=0;exitY=0.75;exitDx=0;exitDy=0;" edge="1" parent="1" source="lDpgORzuOqznQ19GbmqC-1673" target="lDpgORzuOqznQ19GbmqC-1676">
          <mxGeometry x="-1000" y="-485.21" width="100" height="100" as="geometry">
            <mxPoint x="818.5699999999999" y="255.435" as="sourcePoint" />
            <mxPoint x="628.5699999999999" y="270.29" as="targetPoint" />
            <mxPoint x="-9" y="-1" as="offset" />
          </mxGeometry>
        </mxCell>
        <mxCell id="lDpgORzuOqznQ19GbmqC-1679" value="&lt;font style=&quot;font-size: 20px&quot;&gt;considéré comme&lt;/font&gt;" style="edgeStyle=none;endArrow=none;strokeWidth=3;strokeColor=#A29DC5;html=1;entryX=0.5;entryY=1;entryDx=0;entryDy=0;exitX=0.061;exitY=0.192;exitDx=0;exitDy=0;exitPerimeter=0;" edge="1" parent="1" target="lDpgORzuOqznQ19GbmqC-1673">
          <mxGeometry width="100" height="100" as="geometry">
            <mxPoint x="1101.5000000000002" y="246.67000000000004" as="sourcePoint" />
            <mxPoint x="1040.93" y="166.62499999999997" as="targetPoint" />
            <mxPoint x="24" y="2" as="offset" />
          </mxGeometry>
        </mxCell>
        <mxCell id="lDpgORzuOqznQ19GbmqC-1680" style="edgeStyle=orthogonalEdgeStyle;rounded=0;orthogonalLoop=1;jettySize=auto;html=1;exitX=0.5;exitY=1;exitDx=0;exitDy=0;entryX=0.545;entryY=0.641;entryDx=0;entryDy=0;entryPerimeter=0;fontSize=20;" edge="1" parent="1" source="lDpgORzuOqznQ19GbmqC-1676" target="lDpgORzuOqznQ19GbmqC-1676">
          <mxGeometry relative="1" as="geometry" />
        </mxCell>
      </root>
    </mxGraphModel>
  </diagram>
</mxfile>
